<svg xmlns="http://www.w3.org/2000/svg" version="1.1" xmlns:xlink="http://www.w3.org/1999/xlink" xmlns:svgjs="http://svgjs.dev/svgjs" viewBox="0 0 800 800" opacity="0.69"><defs><linearGradient x1="50%" y1="0%" x2="50%" y2="100%" id="wwwhirl-grad"><stop stop-color="hsl(206, 75%, 49%)" stop-opacity="1" offset="45%"></stop><stop stop-color="hsl(331, 90%, 56%)" stop-opacity="1" offset="100%"></stop></linearGradient></defs><g stroke-width="2" stroke="url(#wwwhirl-grad)" fill="none" stroke-linecap="round"><path d="M-116.99993732134503 436.98143119581084C-81.09716000009468 421.5881154193247 -16.472160821844 365.6067098811651 55.33339382065674 363.0935154686776C127.13894846315742 360.5803210561901 155.86117032015778 422.09075430182224 227.6667249626584 424.91809801587067C299.4722796051591 427.74544172991915 328.19450146215945 378.2355118039149 400.0000561046602 376.6647652961102C471.8056107471609 375.0940187883055 500.5278326041612 419.5775598893347 572.3333872466619 417.3785147784081C644.1389418891625 415.17946966748156 672.861163746163 363.91030365273605 744.6667183886636 366.10934876366264C816.4722730311644 368.3083938745892 881.0972722094148 415.05380994685714 917.0000495306651 427.9339313108557 " transform="rotate(132, 400, 400)"></path><path d="M-105.24996787627539 436.1409445783415C-70.16316276687164 421.09747688768465 -7.006913569944857 366.3883760208468 63.166696648862626 363.9322996631886C133.34030686767017 361.4762233055303 161.40975095519326 421.5886921592163 231.58336117400074 424.35177806158185C301.75697139280817 427.11486396394736 329.8264154803312 378.7301597180796 400.00002569913875 377.1951119945432C470.1736359179463 375.6600642710068 498.2430800054693 419.132615801558 568.4166902242767 416.983548988607C638.5903004430843 414.8344821756561 666.6597445306074 364.7305244794275 736.8333547494149 366.8795912923785C807.0069649682223 369.02865810532944 870.1632141651489 414.71167835777317 905.2500192745529 427.2990696907717 " transform="rotate(129, 400, 400)"></path><path d="M-93.49996791362764 435.3004550998492C-59.22913501607047 420.6068354950216 2.4583641995324115 367.1700392995056 71.00002999464675 364.7710809966766C139.54169578976104 362.3721226938476 166.95836210780686 421.0866271555874 235.5000279029211 423.78545524627003C304.0416936980354 426.4842833369526 331.4583600160811 379.22480477122133 400.0000258111954 377.7254558319532C468.5416916063099 376.2261068926851 495.9583579243556 418.6876688527584 564.5000237194698 416.588580337783C633.0416895145842 414.4894918228076 660.45835583263 365.55074244509603 729.0000216277443 367.6498309600714C797.5416874228584 369.74891947504676 859.2291866384612 414.3695439076662 893.5000195360185 426.66420520966483 " transform="rotate(126, 400, 400)"></path><path d="M-81.74996795097988 434.4599694360542C-48.29510726526931 420.11619791705584 11.92364196900968 367.95170639286164 78.83336334043076 365.6098661448619C145.7430847118519 363.2680258968621 172.5069732604204 420.58456596665576 239.41669463184155 423.2191362456555C306.3264160032626 425.8537065246552 333.09030455183097 379.7194536390603 400.0000259232522 378.2558034840605C466.90974729467337 376.7921533290606 493.67363584324175 418.242725718656 560.5833572146629 416.19361550165627C627.4930785860839 414.1445052846565 654.2569671346525 366.3709642254618 721.1666885060736 368.42007444246156C788.0764098774947 370.46918465946135 848.2951591117735 414.02741327225647 881.7500197974841 426.02934454325515 " transform="rotate(123, 400, 400)"></path><path d="M-69.99996798833212 433.6194837722592C-37.361079514468145 419.62556033909004 21.388919738486976 368.73337348621766 86.66669668621489 366.4486512930472C151.94447363394283 364.1639290998767 178.05558441303407 420.0825047777241 243.33336136076196 422.6528172450409C308.61113830848984 425.2231297123577 334.72224908758096 380.21410250689934 400.0000260353089 378.78615113616775C465.27780298303685 377.3581997654362 491.388913762128 417.79778258455366 556.666690709856 415.79865066552946C621.9444676575838 413.7995187465053 648.0555784366751 367.1911860058276 713.333355384403 369.19031792485174C778.6111323321309 371.18944984387593 837.3611315850859 413.6852826368468 870.0000200589498 425.39448387684547 " transform="rotate(120, 400, 400)"></path><path d="M-58.24996802568437 432.7789942937669C-26.42705176366701 419.13491894642704 30.854197507964244 369.5150367648764 94.50003003199896 367.28743262653524C158.1458625560337 365.059828488194 183.60419556564767 419.5804397740952 247.2500280896823 422.0864944297291C310.89586061371705 424.592549085363 336.3541936233309 380.70874756004105 400.0000261473656 379.3164949735778C463.64585867140033 377.92424238711453 489.1041916810143 417.352835635754 552.750024205049 415.40368201470545C616.3958567290837 413.4545283936569 641.8541897386976 368.0114039714961 705.5000222627324 369.96055759254466C769.145854786767 371.90971121359325 826.4271040583982 413.3431481867398 858.2500203204156 424.7596193957386 " transform="rotate(117, 400, 400)"></path><path d="M-46.49999858061473 431.9385067226233C-15.49305453044397 418.6442794611126 40.319444759863416 370.29670195088386 102.3333328602049 368.12621586737185C164.34722096054645 365.9557297838599 189.15277620068315 419.07837667781496 251.16666430102464 421.5201735217659C313.1805524013661 423.96197036571687 337.9861076415027 381.2033945205314 399.99999574184426 379.8468407183364C462.0138838421858 378.49028691614143 486.81943908232245 416.907890594303 548.833327182664 415.0087152712301C610.8472152830054 413.10953994815713 635.6527705231422 368.8316238445133 697.6666586234836 370.7307991675862C759.6805467238252 372.6299744906592 815.4930460141323 413.00101564398153 846.4999900643032 424.12475682198027 " transform="rotate(114, 400, 400)"></path><path d="M-34.74999861796698 431.0980210588283C-4.559026779642807 418.1536418831468 49.784722529340684 371.0783690442399 110.16666620598903 368.96500101555716C170.54860988263732 366.8516329868745 194.70138735329675 418.5763154888833 255.08333102994504 420.95385452115136C315.46527470659333 423.3313935534194 339.6180521772526 381.69804338837037 399.99999585390105 380.3771883704437C460.3819395305493 379.056333352517 484.5347170012087 416.46294746020067 544.916660677857 414.61375043510327C605.2986043545052 412.764553410006 629.4513818251647 369.65184562487906 689.833325501813 371.5010426499764C750.2152691784613 373.35023967507374 804.5590184874447 412.6588850085718 834.7499903257689 423.4898961555706 " transform="rotate(111, 400, 400)"></path><path d="M-22.999998655319217 430.25753348768467C6.375000971158329 417.66300239783243 59.25000029881795 371.86003423024727 117.9999995517731 369.80378425639384C176.7499988047282 367.7475342825404 200.2499985059103 418.07425239260306 258.99999775886545 420.38753361318817C317.74999701182054 422.7008148337733 341.24999671300253 382.19269034886076 399.99999596595774 380.90753411520234C458.7499952189129 379.62237788154397 482.2499949200949 416.01800241874963 540.99999417305 414.2187836916279C599.7499934260051 412.41956496450615 623.2499931271873 370.4720654978962 681.9999923801424 372.27128422501795C740.7499916330975 374.0705029521397 793.624990960757 412.31675246581347 822.9999905872346 422.85503358181234 " transform="rotate(108, 400, 400)"></path><path d="M-11.249998692671468 429.41704591654104C17.309028721959493 417.172362912518 68.71527806829525 372.64169941625465 125.83333289755717 370.6425674972305C182.95138772681912 368.6434355782063 205.7986096585239 417.57218929632285 262.91666448778585 419.82121270522504C320.0347193170477 422.0702361141272 342.8819412487525 382.6873373093511 399.9999960780144 381.437879859961C457.11805090727637 380.1884224105709 479.96527283898126 415.57305737729865 537.0833276682431 413.8238169481525C594.201382497505 412.07457651900637 617.04860442921 371.29228537091336 674.1666592584718 373.0415258000595C731.2847140877336 374.79076622920564 782.6909634340693 411.9746199230552 811.2499908487003 422.220171008054 " transform="rotate(105, 400, 400)"></path><path d="M0.5000012699762948 428.57655834539736C28.243056472760657 416.68172342720356 78.18055583777252 373.42336460226204 133.66666624334124 371.48135073806714C189.15277664891 369.53933687387223 211.3472208111375 417.0701262000426 266.8333312167062 419.25489179726185C322.3194416222749 421.4396573944811 344.5138857845024 383.18198426984145 399.9999961900712 381.96822560471963C455.48610659563997 380.7544669395978 477.6805507578674 415.1281123358477 533.1666611634362 413.42885020467713C588.6527715690048 411.7295880735066 610.8472157312325 372.1125052439305 666.3333261368011 373.81176737510106C721.8194365423699 375.5110295062716 771.7569359073816 411.6324873802968 799.499991110166 421.5853084342957 " transform="rotate(102, 400, 400)"></path><path d="M12.250001232624044 427.73607268160237C39.17708422356182 416.1910858492378 87.64583360724981 374.2050316956181 141.49999958912534 372.32013588625244C195.35416557100086 370.4352400768868 216.8958319637511 416.56806501111095 270.74999794562666 418.6885727966473C324.60416392750216 420.80908058218364 346.14583032025234 383.6766331376805 399.9999963021279 382.49857325682694C453.85416228400345 381.3205133759734 475.3958286767537 414.6831692017453 529.2499946586292 413.03388536855033C583.1041606405047 411.38460153535544 604.645827033255 372.9327270242963 658.4999930151306 374.58201085749124C712.354158997006 376.2312946906862 760.8229083806939 411.29035674488716 787.7499913716317 420.9504477678861 " transform="rotate(99, 400, 400)"></path><path d="M24.000001195271807 426.89558511045874C50.111111974362984 415.7004463639234 97.11111137672708 374.9866968816255 149.3333329349094 373.1589191270891C201.5555544930918 371.33114137255274 222.4444431163647 416.0660019148307 274.66666467454706 418.1222518886841C326.88888623272936 420.17850186253753 347.7777748560023 384.1712800981708 399.99999641418464 383.02891900158556C452.22221797236693 381.88655790500036 473.11110659563997 414.2382241602943 525.3333281538223 412.63891862507495C577.5555497120046 411.0396130898556 598.4444383352776 373.75294689731345 650.6666598934598 375.3522524325328C702.8888814516422 376.95155796775214 749.8888808540062 410.9482242021288 775.9999916330975 420.3155851941278 " transform="rotate(96, 400, 400)"></path><path d="M35.750001157919556 426.0550975393151C61.04513972516412 415.209806878609 106.57638914620435 375.7683620676329 157.1666662806935 373.9977023679258C207.7569434151826 372.22704266821864 227.9930542689783 415.5639388185504 278.58333140346747 417.5559309807209C329.17360853795657 419.5479231428914 349.4097193917522 384.66592705866117 399.9999965262414 383.55926474634424C450.59027366073053 382.45260243402726 470.8263845145261 413.7932791188433 521.4166616490154 412.24395188159957C572.0069387835044 410.6946246443558 592.2430496373001 374.5731667703306 642.8333267717893 376.12249400757435C693.4236039062785 377.67182124481803 738.9548533273186 410.60609165937046 764.2499918945631 419.68072262036947 " transform="rotate(93, 400, 400)"></path><path d="M47.50000112056732 425.21461187552006C71.97916747596528 414.7191693006432 116.04166691568162 376.5500291609889 164.99999962647757 374.83648751611105C213.95833233727353 373.12294587123324 233.54166542159192 415.0618776296188 282.4999981323879 416.98961198010636C331.4583308431838 418.91734633059394 351.04166392750216 385.16057592650014 399.99999663829806 384.0896123984515C448.95832934909413 383.01864887040284 468.5416624334125 413.3483359847409 517.4999951442082 411.8489870454728C566.4583278550043 410.3496381062047 586.0416609393227 375.3933885506964 634.9999936501187 376.8927374899645C683.9583263609145 378.3920864292326 728.0208258006309 410.2639610239608 752.4999921560288 419.0458619539598 " transform="rotate(90, 400, 400)"></path><path d="M59.25000108321507 424.37412430437644C82.91319522676645 414.2285298153288 125.50694468515891 377.33169434699636 172.83333297226164 375.6752707569477C220.1597212593644 374.01884716689915 239.09027657420552 414.5598145333385 286.4166648613083 416.4232910721432C333.743053148411 418.2867676109479 352.67360846325204 385.65522288699054 399.99999675035485 384.61995814321017C447.32638503745756 383.5846933994298 466.25694035229867 412.90339094328993 513.5833286394013 411.4540203019974C560.9097169265042 410.0046496607049 579.8402722413454 376.21360842371354 627.166660528448 377.662979065006C674.4930488155508 379.1123497062986 717.0867982739431 409.92182848120245 740.7499924174946 418.41099938020153 " transform="rotate(87, 400, 400)"></path><path d="M71.00000104586283 423.5336367332328C93.84722297756761 413.7378903300144 134.97222245463618 378.11335953300375 180.66666631804574 376.5140539977844C226.36111018145527 374.91474846256506 244.63888772681912 414.05775143705824 290.3333315902287 415.85697016418C336.0277754536382 417.6561888913018 354.305552999002 386.1498698474809 399.9999968624116 385.1503038879688C445.69444072582115 384.1507379284567 463.97221827118494 412.4584459018389 509.6666621345944 411.059053558522C555.361105998004 409.6596612152051 573.6388835433679 377.0338282967307 619.3333274067775 378.4332206400476C665.0277712701869 379.8326129833645 706.1527707472554 409.57969593844416 728.9999926789602 417.7761368064432 " transform="rotate(84, 400, 400)"></path><path d="M82.75000100851058 422.6931510694378C104.78125072836875 413.2472527520486 144.43750022411348 378.89502662635977 188.4999996638298 377.3528391459697C232.56249910354614 375.8106516655796 250.18749887943272 413.5556902481266 294.2499983191491 415.2906511635655C338.3124977588654 417.0256120790043 355.9374975347519 386.64451871531986 399.9999969744683 385.6806515400761C444.0624964141847 384.7167843648323 461.6874961900712 412.01350276773655 505.74999562978746 410.66408872239526C549.8124950695038 409.314674677054 567.4374948453905 377.8540500770965 611.4999942851068 379.20346412243777C655.5624937248231 380.5528781677791 695.2187432205677 409.23756530303444 717.249992940426 417.14127614003354 " transform="rotate(81, 400, 400)"></path><path d="M94.50000097115834 421.8526634982942C115.71527847916991 412.75661326673423 153.90277799359075 379.67669181236715 196.3333330096139 378.19162238680633C238.76388802563702 376.70655296124556 255.73611003204633 413.0536271518464 298.1666650480695 414.7243302556023C340.59722006409265 416.3950333593582 357.56944207050185 387.13916567581026 399.999997086525 386.2109972848347C442.4305521025482 385.28282889385923 459.40277410895743 411.5685577262856 501.83332912498054 410.2691219789199C544.2638841410037 408.96968623155414 561.236106147413 378.6742699501136 603.6666611634362 379.9737056974793C646.0972161794593 381.273141444845 684.2847156938801 408.8954327602761 705.4999932018917 416.5064135662752 " transform="rotate(78, 400, 400)"></path><path d="M106.25000093380609 421.01217592715057C126.64930622997107 412.2659737814198 163.368055763068 380.45835699837454 204.16666635539798 379.030405627643C244.96527694772792 377.60245425691147 261.28472118465993 412.55156405556613 302.0833317769899 414.1580093476391C342.88194236931975 415.7644546397121 359.2013866062518 387.6338126363006 399.99999719858175 386.7413430295934C440.7986077909117 385.8488734228862 457.1180520278437 411.12361268483454 497.91666262017367 409.87415523544445C538.7152732125036 408.62469778605436 555.0347174494357 379.4944898231308 595.8333280417655 380.74394727252087C636.6319386340955 381.99340472191096 673.3506881671924 408.5533002175178 693.7499934633573 415.871550992517 " transform="rotate(75, 400, 400)"></path><path d="M118.00000089645386 420.1716883560069C137.58333398077224 411.77533429610537 172.8333335325453 381.240022184382 211.99999970118205 379.8691888684797C251.16666586981881 378.4983555525774 266.83333233727353 412.04950095928587 305.9999985059103 413.5916884396759C345.166664674547 415.133875920066 360.8333311420017 388.12845959679095 399.9999973106385 387.271688774352C439.16666347927526 386.4149179519131 454.8333299467299 410.67866764338356 493.9999961153667 409.47918849196907C533.1666622840035 408.2797093405546 548.8333287514581 380.31470969614793 587.9999949200949 381.5141888475624C627.1666610887316 382.7136679989769 662.4166606405046 408.21116767475945 681.9999937248231 415.23668841875866 " transform="rotate(72, 400, 400)"></path><path d="M129.7500008591016 419.3312026922119C148.51736173157337 411.2846967181396 182.29861130202258 382.021689277738 219.83333304696615 380.707974016665C257.3680547919097 379.394258755592 272.38194348988714 411.54743977035423 309.9166652348307 413.02536943906136C347.4513869797742 414.5032991077685 362.4652756777516 388.6231084646299 399.9999974226952 387.8020364264593C437.5347191676388 386.98096438828867 452.5486078656162 410.2337245092812 490.08332961055976 409.0842236558423C527.6180513555032 407.9347228024034 542.6319400534808 381.1349314765137 580.1666617984243 382.2844323299526C617.7013835433679 383.4339331833915 651.482633113817 407.86903703934973 670.2499939862888 414.601827752349 " transform="rotate(69, 400, 400)"></path><path d="M141.50000082174938 418.49071512106826C159.45138948237454 410.7940572328252 191.76388907149988 382.8033544637454 227.66666639275024 381.5467572575016C263.5694437140006 380.2901600512579 277.93055464250074 411.04537667407396 313.8333319637511 412.4590485310982C349.7361092850014 413.87272038812245 364.0972202135016 389.1177554251203 399.99999753475197 388.33238217121794C435.90277485600234 387.5470089173156 450.26388578450246 409.7887794678302 486.16666310575283 408.6892569123669C522.0694404270032 407.5897343569036 536.4305513555034 381.95515134953087 572.3333286767537 383.05467390499416C608.2361059980041 384.15419646045746 640.5486055871293 407.52690449659144 658.4999942477544 413.9669651785907 " transform="rotate(66, 400, 400)"></path><path d="M153.25000078439712 417.6502275499246C170.3854172331757 410.3034177475108 201.22916684097714 383.5850196497528 235.4999997385343 382.3855404983383C269.7708326360914 381.1860613469238 283.47916579511434 410.5433135777937 317.7499986926715 411.892727623135C352.0208315902286 413.24214166847634 365.7291647492515 389.61240238561066 399.99999764680865 388.8627279159766C434.2708305443659 388.1130534463425 447.97916370338874 409.3438344263792 482.24999660094585 408.2942901688915C516.520829498503 407.2447459114038 530.2291626575259 382.775371222548 564.4999955550832 383.8249154800357C598.7708284526402 384.8744597375234 629.6145780604415 407.1847719538331 646.7499945092202 413.3321026048324 " transform="rotate(63, 400, 400)"></path><path d="M165.00000074704488 416.80974093245527C181.31944498397687 409.8127792158707 210.6944446104544 384.36668578943454 243.33333308431838 383.2243246928493C275.97222155818235 382.081963596264 289.02777694772794 410.04125143518775 321.6666654215919 411.3264076688462C354.3055538954559 412.61156390250454 367.3611092850014 390.1070502997753 399.9999977588654 389.39307461440956C432.63888623272936 388.6790989290438 445.69444162227495 408.8988903386025 478.3333300961389 407.89932437909044C510.97221857000284 406.89975841957835 524.0277739595485 383.5955920492395 556.6666624334125 384.5951580087516C589.3055509072764 385.5947239682636 618.6805505337538 406.84264036474906 634.9999947706858 412.6972409847484 " transform="rotate(60, 400, 400)"></path><path d="M176.75000070969264 415.96925431498596C192.25347273477803 409.3221406842306 220.1597223799317 385.14835192911625 251.16666643010245 384.0631088873603C282.1736104802732 382.9778658456043 294.57638810034155 409.5391892925818 325.5833321505123 410.7600877145573C356.5902762006831 411.98098613653275 368.99305382075136 390.60169821394004 399.99999787092213 389.92342131284255C431.0069419210929 389.24514441174506 443.4097195411612 408.4539462508258 474.416663591332 407.5043585892893C505.4236076415027 406.5547709277529 517.8263852615711 384.41581287593095 548.8333293117419 385.36540053746745C579.8402733619125 386.3149881990039 607.7465230070661 406.5005087756651 623.2499950321517 412.0623793646644 " transform="rotate(57, 400, 400)"></path><path d="M188.50000067234038 415.12876769751665C203.18750048557916 408.83150215259053 229.62500014940898 385.93001806879795 258.9999997758865 384.9018930818712C288.3749994023641 383.8737680949445 300.12499925295515 409.03712714997584 329.4999988794327 410.19376776026843C358.8749985059103 411.35040837056096 370.62499835650124 391.0963461281047 399.99999798297887 390.4537680112755C429.37499760945644 389.8111898944463 441.12499746004744 408.00900216304916 470.499997086525 407.10939279948826C499.87499671300253 406.2097834359274 511.62499656359364 385.2360337026224 540.9999961900712 386.1356430661833C570.3749958165488 387.03525242974416 596.8124954803785 406.15837718658105 611.4999952936173 411.4275177445805 " transform="rotate(54, 400, 400)"></path><path d="M200.25000063498814 414.288280126373C214.12152823638033 408.3408626672761 239.09027791888627 386.71168325480534 266.83333312167065 385.7406763227079C294.576388324455 384.76966939061043 305.67361040556875 408.5350640536956 333.4166656083531 409.62744685230524C361.15972081113745 410.71982965091485 372.25694289225123 391.59099308859504 399.9999980950356 390.98411375603416C427.74305329782 390.3772344234732 438.8402753789337 407.5640571215981 466.5833305817181 406.7144260560129C494.3263857845024 405.8647949904276 505.42360786561625 386.0562535756396 533.1666630684006 386.9058846412248C560.9097182711849 387.7555157068101 585.8784679536908 405.81624464382276 599.7499955550829 410.7926551708222 " transform="rotate(51, 400, 400)"></path><path d="M212.0000005976359 413.44779350890366C225.0555559871815 407.85022413563604 248.55555568836354 387.49334939448704 274.6666664674547 386.5794605172189C300.7777772465459 385.6655716399507 311.22222155818235 408.0330019110896 337.33333233727353 409.06112689801637C363.4444431163647 410.0892518849431 373.8888874280011 392.0856410027597 399.9999982070923 391.5144604544671C426.11110898618347 390.9432799061745 436.55555329782 407.11911303382146 462.66666407691116 406.3194602662118C488.7777748560023 405.5198074986021 499.2222191676388 386.87647440233104 525.3333299467299 387.6761271699407C551.4444407258211 388.4757799375504 574.9444404270031 405.4741130547387 587.9999958165488 410.1577935507382 " transform="rotate(48, 400, 400)"></path><path d="M223.75000056028364 412.60730593776003C235.98958373798263 407.3595846503216 258.0208334578408 388.2750145804945 282.4999998132388 387.41824375805555C306.97916616863677 386.5614729356166 316.77083271079596 407.5309388148094 341.24999906619394 408.4948059900532C365.7291654215919 409.458673165297 375.5208319637511 392.5802879632501 399.99999831914903 392.0448061992258C424.47916467454706 391.5093244352014 434.27083121670626 406.6741679923705 458.7499975721041 405.9244935227364C483.22916392750216 405.17481905310234 493.02083046966135 387.6966942753482 517.4999968250593 388.44636874498224C541.9791631804572 389.19604321461634 564.0104129003155 405.1319805119804 576.2499960780144 409.5229309769799 " transform="rotate(45, 400, 400)"></path><path d="M235.50000052293143 411.7668183666164C246.92361148878382 406.8689451650072 267.48611122731813 389.0566797665019 290.33333315902286 388.2570269988922C313.18055509072764 387.45737423128253 322.31944386340956 407.02887571852915 345.16666579511434 407.92848508209C368.0138877268191 408.8280944456509 377.152776499501 393.07493492374044 399.99999843120577 392.5751519439844C422.84722036291055 392.07536896422835 431.98610913559247 406.22922295091945 454.8333310672972 405.529526779261C477.680552999002 404.82983060760256 486.81944177168396 388.51691414836534 509.66666370338874 389.2166103200238C532.5138856350934 389.91630649168223 553.0763853736278 404.7898479692221 564.49999633948 408.8880684032216 " transform="rotate(42, 400, 400)"></path><path d="M247.25000048557916 410.9263317491471C257.85763923958496 406.3783066333671 276.95138899679534 389.8383459061836 298.1666665048069 389.09581119340316C319.3819440128185 388.35327648062275 327.86805501602316 406.5268135759232 349.08333252403474 407.3621651278011C370.2986100320463 408.1975166796791 378.7847210352509 393.5695828379051 399.9999985432625 393.1054986424174C421.2152760512741 392.6414144469296 429.7013870544787 405.7842788631428 450.91666456249027 405.13456098945994C472.13194207050185 404.4848431157771 480.6180530737065 389.3371349750568 501.8333305817181 389.98685284873966C523.0486080897297 390.6365707224225 542.1423578469401 404.44771638013805 552.7499966009459 408.2532067831376 " transform="rotate(39, 400, 400)"></path><path d="M259.00000044822696 410.0858451316778C268.79166699038615 405.887668101727 286.41666676627267 390.6200120458653 305.99999985059105 389.93459538791416C325.58333293490944 389.24917872996303 333.41666616863677 406.02475143331725 352.99999925295515 406.7958451735123C372.58333233727353 407.5669389137073 380.41666557100086 394.0642307520698 399.99999865531925 393.6358453408503C419.58333173963763 393.2074599296309 427.41666497336496 405.33933477536607 446.99999805768334 404.7395951996588C466.5833311420017 404.1398556239516 474.41666437572906 390.1573558017483 493.99999746004744 390.7570953774555C513.5833305443658 391.3568349531628 531.2083303202523 404.10558479105407 540.9999968624115 407.6183451630537 " transform="rotate(36, 400, 400)"></path><path d="M270.7500004108747 409.2453575605341C279.7256947411873 405.3970286164126 295.88194453574994 391.4016772318727 313.8333331963751 390.77337862875083C331.7847218570003 390.14508002562894 338.96527732125037 405.522688337037 356.91666598187555 406.2295242655491C374.86805464250074 406.9363601940612 382.0486101067508 394.55887771256016 399.999998767376 394.166191085609C417.95138742800117 393.7735044586578 425.13194289225123 404.8943897339151 443.0833315528764 404.34462845618344C461.0347202135016 403.7948671784518 468.2152756777517 390.97757567476543 486.16666433837685 391.5273369524971C504.11805299900203 392.0770982302287 520.2743027935646 403.7634522482957 529.2499971238772 406.98348258929536 " transform="rotate(33, 400, 400)"></path><path d="M282.5000003735224 408.4048699893905C290.6597224919884 404.9063891310982 305.3472223052272 392.1833424178801 321.6666665421592 391.61216186958745C337.9861107790912 391.04098132129485 344.513888473864 405.0206252407567 360.83333271079596 405.6632033575859C377.15277694772794 406.3057814744151 383.68055464250074 395.0535246730505 399.9999988794327 394.6965368303676C416.3194431163647 394.33954898768474 422.8472208111375 404.4494446924641 439.1666650480695 403.94966171270806C455.4861092850014 403.449878732952 462.01388697977427 391.7977955477826 478.33333121670626 392.29757852753863C494.6527754536382 392.7973615072947 509.3402752668769 403.42131970553737 517.4999973853429 406.34862001553705 " transform="rotate(30, 400, 400)"></path><path d="M294.25000033617016 407.56438337192117C301.5937502427896 404.4157505994581 314.81250007470453 392.9650085575618 329.49999988794326 392.45094606409845C344.18749970118205 391.9368835706351 350.0624996264776 404.51856309815076 364.74999943971636 405.09688340329706C379.43749925295515 405.67520370844335 385.3124991782506 395.54817258721516 399.9999989914894 395.2268835288006C414.6874988047282 394.905594470386 420.5624987300237 404.0045006046874 435.2499985432625 403.554695922907C449.93749835650124 403.10489124112655 455.8124982817968 392.61801637447405 470.4999980950356 393.0678210562545C485.1874979082744 393.51762573803495 498.40624774018926 403.0791881164534 505.74999764680865 405.71375839545306 " transform="rotate(27, 400, 400)"></path><path d="M306.00000029881795 406.7238962776147C312.52777799359075 403.92511159098086 324.27777784418174 393.74667422040636 337.33333323372733 393.2897297817723C350.3888886232729 392.8327853431382 355.6111107790912 404.01650047870766 368.66666616863677 404.530562972171C381.72222155818235 405.0446254656344 386.94444371400056 396.0428200245427 399.99999910354614 395.7572297503964C413.05555449309173 395.47163947625006 418.27777664891 403.5595560400736 431.3333320384556 403.1597296562687C444.3888874280011 402.75990327246393 449.61110958381937 393.43823672432836 462.66666497336496 393.8380631081332C475.72222036291055 394.237889491938 487.47222021350154 402.7370560505322 493.9999979082744 405.07889629853196 " transform="rotate(24, 400, 400)"></path><path d="M317.7500002614657 405.88340918330823C323.4618057443919 403.4344725825036 333.74305561365907 394.5283398832509 345.16666657951146 394.1285134994461C356.59027754536385 393.72868711564126 361.1597219317048 403.51443785926455 372.58333289755717 403.964242541045C384.00694386340956 404.41404722282545 388.5763882497505 396.5374674618702 399.9999992156029 396.2875759719922C411.4236101814553 396.0376844821142 415.9930545677962 403.11461147545975 427.4166655336486 402.7647633896305C438.840276499501 402.41491530380125 443.409720885842 394.2584570741827 454.83333185169437 394.6083051600119C466.2569428175467 394.9581532458411 476.5381926868139 402.394923984611 482.24999816974 404.4440342016108 " transform="rotate(21, 400, 400)"></path><path d="M329.5000002241135 405.04292256583886C334.3958334951931 402.94383405086353 343.20833338313633 395.31000602293267 352.9999999252955 394.9672976939571C362.7916664674547 394.6245893649815 366.7083330843184 403.0123757166586 376.4999996264776 403.3979225867561C386.29166616863677 403.78346945685365 390.20833278550043 397.0321153760349 399.9999993276596 396.81792267042516C409.7916658698188 396.60372996481544 413.7083324866825 402.66966738768303 423.49999902884167 402.36979759982944C433.29166557100086 402.0699278119758 437.2083321878645 395.07867790087414 446.9999987300237 395.37854768872774C456.7916652721829 395.6784174765814 465.6041651601262 402.05279239552704 470.49999843120577 403.8091725815268 " transform="rotate(18, 400, 400)"></path><path d="M341.2500040014585 404.20243499469524C345.3298650606915 402.4531945655491 352.67361496731087 396.09167120894006 360.83333708577686 395.8060809347937C368.99305920424285 395.52049066064745 372.25694805162925 402.5103126203784 380.41667017009524 402.83160167879294C388.57639228856124 403.15289073720754 391.84028113594763 397.5267623365253 400.0000032544136 397.34826841518384C408.1597253728796 397.1697744938424 411.423614220266 402.22472234623206 419.583336338732 401.974830856354C427.743058457198 401.724939366476 431.0069473045844 395.8988977738913 439.1666694230504 396.1487892637693C447.3263915415164 396.39868075364734 454.6701414481357 401.7106598527687 458.7500025073687 403.17431000776855 " transform="rotate(15, 400, 400)"></path><path d="M353.0000039641062 403.36194813880735C356.2638928114926 401.9625557954904 362.13889273678814 396.8733371102032 368.66667043156093 396.64486489088614C375.1944481263337 396.4163926715691 377.80555920424285 402.00825023935386 384.33333689901565 402.26528148608554C390.86111459378844 402.52231273281717 393.4722256716975 398.02141001227136 400.0000033664703 397.8786148751982C406.5277810612431 397.73581973812503 409.1388921391523 401.7797780200368 415.6666698339251 401.57986482813436C422.1944475286978 401.37995163623197 424.80555860660695 396.7191183621642 431.33333630137975 396.9190315540666C437.86111399615254 397.11894474596903 443.736113921448 401.3685280252661 447.00000276883446 402.539448149266 " transform="rotate(12, 400, 400)"></path><path d="M364.750003926754 402.52146128291946C367.1979205622938 401.47191702543176 371.6041705062654 397.6550030114663 376.500003777345 397.48364884697855C381.3958370484246 397.31229468249074 383.35417035685646 401.5061878583293 388.25000362793605 401.6989612933781C393.14583689901565 401.89173472842685 395.1041702074475 398.51605768801744 400.0000034785271 398.4089613352126C404.8958367496067 398.3018649824077 406.8541700580385 401.3348336938415 411.7500033291181 401.1848987999147C416.6458366001977 401.0349639059879 418.6041699086295 397.53933895043707 423.5000031797091 397.68927384436387C428.3958364507887 397.8392087382907 432.80208639476035 401.0263961977635 435.25000303030015 401.9045862907634 " transform="rotate(9, 400, 400)"></path><path d="M376.50000388940174 401.68097418861294C378.13194831309494 400.9812780169545 381.06944827574273 398.4366686743109 384.3333371231291 398.32243256465233C387.5972259705155 398.2081964549938 388.90278150947006 401.0041252388862 392.16667035685646 401.13264086225206C395.43055920424285 401.2611564856179 396.7361147431974 399.01070512534494 400.0000035905838 398.9393075568084C403.2638924379702 398.86790998827183 404.5694479769248 400.8898891292277 407.8333368243111 400.7899325332765C411.0972256716975 400.68997593732524 412.4027812106521 398.3595593002914 415.6666700580385 398.4595158962426C418.9305589054249 398.5594724921938 421.86805886807264 400.6842641318423 423.5000032917659 401.26972419384225 " transform="rotate(6, 400, 400)"></path><path d="M388.25000385204953 400.84048709430647C389.0659760638961 400.4906390084773 390.53472604522 399.21833433715545 392.1666704689132 399.16121628232617C393.7986148926064 399.10409822749693 394.45139266208366 400.5020626194431 396.08333708577686 400.56632043112603C397.71528150947006 400.63057824280895 398.3680592789473 399.5053525626725 400.0000037026405 399.4696537784042C401.6319481263337 399.4339549941359 402.284725895811 400.4449445646138 403.9166703195042 400.3949662666382C405.5486147431974 400.3449879686626 406.2013925126747 399.1797796501457 407.8333369363679 399.2297579481213C409.4652813600611 399.2797362460969 410.934031341385 400.3421320659212 411.7500035532315 400.63486209692115 " transform="rotate(3, 400, 400)"></path></g></svg>